<?xml version="1.0" encoding="UTF-8" standalone="no"?>
<!DOCTYPE svg PUBLIC "-//W3C//DTD SVG 1.1//EN"
 "http://www.w3.org/Graphics/SVG/1.1/DTD/svg11.dtd">
<!-- Generated by graphviz version 2.40.1 (20161225.0304)
 -->
<!-- Title: dependencies Pages: 1 -->
<svg width="2196pt" height="360pt"
 viewBox="0.00 0.00 2196.00 360.00" xmlns="http://www.w3.org/2000/svg" xmlns:xlink="http://www.w3.org/1999/xlink">
<g id="graph0" class="graph" transform="scale(1 1) rotate(0) translate(4 356)">
<title>dependencies</title>
<polygon fill="#ffffff" stroke="transparent" points="-4,4 -4,-356 2192,-356 2192,4 -4,4"/>
<text text-anchor="start" x="1073.0091" y="-42.4" font-family="sans-serif" font-weight="bold" font-size="14.00" fill="#000000">Legend</text>
<polygon fill="#ffffb3" stroke="transparent" points="860,-10 860,-30 880,-30 880,-10 860,-10"/>
<text text-anchor="start" x="883.629" y="-15.4" font-family="sans-serif" font-size="14.00" fill="#000000"> &#160;Declarations</text>
<polygon fill="#8dd3c7" stroke="transparent" points="973,-10 973,-30 993,-30 993,-10 973,-10"/>
<text text-anchor="start" x="996.7251" y="-15.4" font-family="sans-serif" font-size="14.00" fill="#000000"> &#160;Module</text>
<polygon fill="#80b1d3" stroke="transparent" points="1059,-10 1059,-30 1079,-30 1079,-10 1059,-10"/>
<text text-anchor="start" x="1082.7812" y="-15.4" font-family="sans-serif" font-size="14.00" fill="#000000"> &#160;Bootstrap</text>
<polygon fill="#fdb462" stroke="transparent" points="1156,-10 1156,-30 1176,-30 1176,-10 1156,-10"/>
<text text-anchor="start" x="1179.6732" y="-15.4" font-family="sans-serif" font-size="14.00" fill="#000000"> &#160;Providers</text>
<polygon fill="#fb8072" stroke="transparent" points="1252,-10 1252,-30 1272,-30 1272,-10 1252,-10"/>
<text text-anchor="start" x="1275.7258" y="-15.4" font-family="sans-serif" font-size="14.00" fill="#000000"> &#160;Exports</text>
<g id="clust1" class="cluster">
<title>cluster_AppModule</title>
<polygon fill="none" stroke="#000000" stroke-dasharray="1,5" points="343,-146 343,-344 875,-344 875,-146 343,-146"/>
</g>
<g id="clust2" class="cluster">
<title>cluster_AppModule_declarations</title>
<polygon fill="none" stroke="#000000" points="467,-154 467,-206 867,-206 867,-154 467,-154"/>
</g>
<g id="clust6" class="cluster">
<title>cluster_AppModule_imports</title>
<polygon fill="none" stroke="#000000" points="351,-154 351,-206 459,-206 459,-154 351,-154"/>
</g>
<g id="clust8" class="cluster">
<title>cluster_AppModule_bootstrap</title>
<polygon fill="none" stroke="#000000" points="546,-284 546,-336 670,-336 670,-284 546,-284"/>
</g>
<g id="clust10" class="cluster">
<title>cluster_PagesModule</title>
<polygon fill="none" stroke="#000000" stroke-dasharray="1,5" points="8,-70 8,-138 1351,-138 1351,-70 8,-70"/>
</g>
<g id="clust11" class="cluster">
<title>cluster_PagesModule_declarations</title>
<polygon fill="none" stroke="#000000" points="629,-78 629,-130 1221,-130 1221,-78 629,-78"/>
</g>
<g id="clust16" class="cluster">
<title>cluster_PagesModule_imports</title>
<polygon fill="none" stroke="#000000" points="1229,-78 1229,-130 1343,-130 1343,-78 1229,-78"/>
</g>
<g id="clust17" class="cluster">
<title>cluster_PagesModule_exports</title>
<polygon fill="none" stroke="#000000" points="16,-78 16,-130 621,-130 621,-78 16,-78"/>
</g>
<g id="clust20" class="cluster">
<title>cluster_SharedModule</title>
<polygon fill="none" stroke="#000000" stroke-dasharray="1,5" points="883,-146 883,-214 2180,-214 2180,-146 883,-146"/>
</g>
<g id="clust21" class="cluster">
<title>cluster_SharedModule_declarations</title>
<polygon fill="none" stroke="#000000" points="1542,-154 1542,-206 2172,-206 2172,-154 1542,-154"/>
</g>
<g id="clust27" class="cluster">
<title>cluster_SharedModule_exports</title>
<polygon fill="none" stroke="#000000" points="891,-154 891,-206 1534,-206 1534,-154 891,-154"/>
</g>
<!-- AppComponent -->
<g id="node1" class="node">
<title>AppComponent</title>
<polygon fill="#ffffb3" stroke="#000000" points="858.9399,-198 753.0601,-198 753.0601,-162 858.9399,-162 858.9399,-198"/>
<text text-anchor="middle" x="806" y="-175.8" font-family="Times,serif" font-size="14.00" fill="#000000">AppComponent</text>
</g>
<!-- AppModule -->
<g id="node4" class="node">
<title>AppModule</title>
<polygon fill="#8dd3c7" stroke="#000000" points="649.6571,-263 646.6571,-267 625.6571,-267 622.6571,-263 566.3429,-263 566.3429,-227 649.6571,-227 649.6571,-263"/>
<text text-anchor="middle" x="608" y="-240.8" font-family="Times,serif" font-size="14.00" fill="#000000">AppModule</text>
</g>
<!-- AppComponent&#45;&gt;AppModule -->
<g id="edge1" class="edge">
<title>AppComponent&#45;&gt;AppModule</title>
<path fill="none" stroke="#000000" d="M806,-198.1061C806,-217.3391 806,-245 806,-245 806,-245 659.9907,-245 659.9907,-245"/>
<polygon fill="#000000" stroke="#000000" points="659.9907,-241.5001 649.9907,-245 659.9907,-248.5001 659.9907,-241.5001"/>
</g>
<!-- LoginComponent -->
<g id="node2" class="node">
<title>LoginComponent</title>
<polygon fill="#ffffb3" stroke="#000000" points="735.2758,-198 620.7242,-198 620.7242,-162 735.2758,-162 735.2758,-198"/>
<text text-anchor="middle" x="678" y="-175.8" font-family="Times,serif" font-size="14.00" fill="#000000">LoginComponent</text>
</g>
<!-- LoginComponent&#45;&gt;AppModule -->
<g id="edge2" class="edge">
<title>LoginComponent&#45;&gt;AppModule</title>
<path fill="none" stroke="#000000" d="M635.2202,-198.1061C635.2202,-198.1061 635.2202,-216.991 635.2202,-216.991"/>
<polygon fill="#000000" stroke="#000000" points="631.7203,-216.9909 635.2202,-226.991 638.7203,-216.991 631.7203,-216.9909"/>
</g>
<!-- RegisterComponent -->
<g id="node3" class="node">
<title>RegisterComponent</title>
<polygon fill="#ffffb3" stroke="#000000" points="602.9846,-198 475.0154,-198 475.0154,-162 602.9846,-162 602.9846,-198"/>
<text text-anchor="middle" x="539" y="-175.8" font-family="Times,serif" font-size="14.00" fill="#000000">RegisterComponent</text>
</g>
<!-- RegisterComponent&#45;&gt;AppModule -->
<g id="edge3" class="edge">
<title>RegisterComponent&#45;&gt;AppModule</title>
<path fill="none" stroke="#000000" d="M584.5821,-198.1061C584.5821,-198.1061 584.5821,-216.991 584.5821,-216.991"/>
<polygon fill="#000000" stroke="#000000" points="581.0821,-216.9909 584.5821,-226.991 588.0821,-216.991 581.0821,-216.9909"/>
</g>
<!-- AppComponent  -->
<g id="node6" class="node">
<title>AppComponent </title>
<polygon fill="#80b1d3" stroke="#000000" points="662.439,-328 553.561,-328 553.561,-292 662.439,-292 662.439,-328"/>
<text text-anchor="middle" x="608" y="-305.8" font-family="Times,serif" font-size="14.00" fill="#000000">AppComponent </text>
</g>
<!-- AppModule&#45;&gt;AppComponent  -->
<g id="edge5" class="edge">
<title>AppModule&#45;&gt;AppComponent </title>
<path fill="none" stroke="#000000" stroke-dasharray="1,5" d="M608,-263.1061C608,-263.1061 608,-281.991 608,-281.991"/>
<polygon fill="#000000" stroke="#000000" points="604.5001,-281.9909 608,-291.991 611.5001,-281.991 604.5001,-281.9909"/>
</g>
<!-- PagesModule -->
<g id="node5" class="node">
<title>PagesModule</title>
<polygon fill="#8dd3c7" stroke="#000000" points="451.2064,-198 448.2064,-202 427.2064,-202 424.2064,-198 358.7936,-198 358.7936,-162 451.2064,-162 451.2064,-198"/>
<text text-anchor="middle" x="405" y="-175.8" font-family="Times,serif" font-size="14.00" fill="#000000">PagesModule</text>
</g>
<!-- PagesModule&#45;&gt;AppModule -->
<g id="edge4" class="edge">
<title>PagesModule&#45;&gt;AppModule</title>
<path fill="none" stroke="#000000" d="M405,-198.1061C405,-217.3391 405,-245 405,-245 405,-245 555.9383,-245 555.9383,-245"/>
<polygon fill="#000000" stroke="#000000" points="555.9383,-248.5001 565.9383,-245 555.9382,-241.5001 555.9383,-248.5001"/>
</g>
<!-- DashboardComponent  -->
<g id="node12" class="node">
<title>DashboardComponent </title>
<polygon fill="#fb8072" stroke="#000000" points="612.9742,-122 467.0258,-122 467.0258,-86 612.9742,-86 612.9742,-122"/>
<text text-anchor="middle" x="540" y="-99.8" font-family="Times,serif" font-size="14.00" fill="#000000">DashboardComponent </text>
</g>
<!-- PagesModule&#45;&gt;DashboardComponent  -->
<g id="edge11" class="edge">
<title>PagesModule&#45;&gt;DashboardComponent </title>
<path fill="none" stroke="#000000" stroke-dasharray="5,2" d="M451.2927,-180C462.4074,-180 471.1355,-180 471.1355,-180 471.1355,-180 471.1355,-132.0109 471.1355,-132.0109"/>
<polygon fill="#000000" stroke="#000000" points="474.6356,-132.0109 471.1355,-122.0109 467.6356,-132.011 474.6356,-132.0109"/>
</g>
<!-- Graficas1Component  -->
<g id="node13" class="node">
<title>Graficas1Component </title>
<polygon fill="#fb8072" stroke="#000000" points="449.7394,-122 310.2606,-122 310.2606,-86 449.7394,-86 449.7394,-122"/>
<text text-anchor="middle" x="380" y="-99.8" font-family="Times,serif" font-size="14.00" fill="#000000">Graficas1Component </text>
</g>
<!-- PagesModule&#45;&gt;Graficas1Component  -->
<g id="edge12" class="edge">
<title>PagesModule&#45;&gt;Graficas1Component </title>
<path fill="none" stroke="#000000" stroke-dasharray="5,2" d="M371.8573,-161.9891C371.8573,-161.9891 371.8573,-132.145 371.8573,-132.145"/>
<polygon fill="#000000" stroke="#000000" points="375.3574,-132.145 371.8573,-122.145 368.3574,-132.1451 375.3574,-132.145"/>
</g>
<!-- PagesComponent  -->
<g id="node14" class="node">
<title>PagesComponent </title>
<polygon fill="#fb8072" stroke="#000000" points="292.9898,-122 175.0102,-122 175.0102,-86 292.9898,-86 292.9898,-122"/>
<text text-anchor="middle" x="234" y="-99.8" font-family="Times,serif" font-size="14.00" fill="#000000">PagesComponent </text>
</g>
<!-- PagesModule&#45;&gt;PagesComponent  -->
<g id="edge13" class="edge">
<title>PagesModule&#45;&gt;PagesComponent </title>
<path fill="none" stroke="#000000" stroke-dasharray="5,2" d="M358.7249,-174C308.0826,-174 234,-174 234,-174 234,-174 234,-132.0267 234,-132.0267"/>
<polygon fill="#000000" stroke="#000000" points="237.5001,-132.0267 234,-122.0267 230.5001,-132.0268 237.5001,-132.0267"/>
</g>
<!-- ProgressComponent  -->
<g id="node15" class="node">
<title>ProgressComponent </title>
<polygon fill="#fb8072" stroke="#000000" points="157.54,-122 24.46,-122 24.46,-86 157.54,-86 157.54,-122"/>
<text text-anchor="middle" x="91" y="-99.8" font-family="Times,serif" font-size="14.00" fill="#000000">ProgressComponent </text>
</g>
<!-- PagesModule&#45;&gt;ProgressComponent  -->
<g id="edge14" class="edge">
<title>PagesModule&#45;&gt;ProgressComponent </title>
<path fill="none" stroke="#000000" stroke-dasharray="5,2" d="M358.6682,-186C271.3239,-186 91,-186 91,-186 91,-186 91,-132.1985 91,-132.1985"/>
<polygon fill="#000000" stroke="#000000" points="94.5001,-132.1984 91,-122.1985 87.5001,-132.1985 94.5001,-132.1984"/>
</g>
<!-- DashboardComponent -->
<g id="node7" class="node">
<title>DashboardComponent</title>
<polygon fill="#ffffb3" stroke="#000000" points="1212.9734,-122 1071.0266,-122 1071.0266,-86 1212.9734,-86 1212.9734,-122"/>
<text text-anchor="middle" x="1142" y="-99.8" font-family="Times,serif" font-size="14.00" fill="#000000">DashboardComponent</text>
</g>
<!-- DashboardComponent&#45;&gt;PagesModule -->
<g id="edge6" class="edge">
<title>DashboardComponent&#45;&gt;PagesModule</title>
<path fill="none" stroke="#000000" d="M1138.2639,-122.1025C1138.2639,-133.0859 1138.2639,-145 1138.2639,-145 1138.2639,-145 423.6988,-145 423.6988,-145 423.6988,-145 423.6988,-151.68 423.6988,-151.68"/>
<polygon fill="#000000" stroke="#000000" points="420.1989,-151.6799 423.6988,-161.68 427.1989,-151.68 420.1989,-151.6799"/>
</g>
<!-- Graficas1Component -->
<g id="node8" class="node">
<title>Graficas1Component</title>
<polygon fill="#ffffb3" stroke="#000000" points="1052.7395,-122 917.2605,-122 917.2605,-86 1052.7395,-86 1052.7395,-122"/>
<text text-anchor="middle" x="985" y="-99.8" font-family="Times,serif" font-size="14.00" fill="#000000">Graficas1Component</text>
</g>
<!-- Graficas1Component&#45;&gt;PagesModule -->
<g id="edge7" class="edge">
<title>Graficas1Component&#45;&gt;PagesModule</title>
<path fill="none" stroke="#000000" d="M953.6862,-122.4218C953.6862,-131.2791 953.6862,-140 953.6862,-140 953.6862,-140 410.7384,-140 410.7384,-140 410.7384,-140 410.7384,-151.8726 410.7384,-151.8726"/>
<polygon fill="#000000" stroke="#000000" points="407.2385,-151.8725 410.7384,-161.8726 414.2385,-151.8726 407.2385,-151.8725"/>
</g>
<!-- PagesComponent -->
<g id="node9" class="node">
<title>PagesComponent</title>
<polygon fill="#ffffb3" stroke="#000000" points="898.9888,-122 785.0112,-122 785.0112,-86 898.9888,-86 898.9888,-122"/>
<text text-anchor="middle" x="842" y="-99.8" font-family="Times,serif" font-size="14.00" fill="#000000">PagesComponent</text>
</g>
<!-- PagesComponent&#45;&gt;PagesModule -->
<g id="edge8" class="edge">
<title>PagesComponent&#45;&gt;PagesModule</title>
<path fill="none" stroke="#000000" d="M821.8626,-122.1432C821.8626,-128.4611 821.8626,-134 821.8626,-134 821.8626,-134 397.7781,-134 397.7781,-134 397.7781,-134 397.7781,-151.8196 397.7781,-151.8196"/>
<polygon fill="#000000" stroke="#000000" points="394.2782,-151.8195 397.7781,-161.8196 401.2782,-151.8196 394.2782,-151.8195"/>
</g>
<!-- ProgressComponent -->
<g id="node10" class="node">
<title>ProgressComponent</title>
<polygon fill="#ffffb3" stroke="#000000" points="766.5408,-122 637.4592,-122 637.4592,-86 766.5408,-86 766.5408,-122"/>
<text text-anchor="middle" x="702" y="-99.8" font-family="Times,serif" font-size="14.00" fill="#000000">ProgressComponent</text>
</g>
<!-- ProgressComponent&#45;&gt;PagesModule -->
<g id="edge9" class="edge">
<title>ProgressComponent&#45;&gt;PagesModule</title>
<path fill="none" stroke="#000000" d="M686.3089,-122.1903C686.3089,-125.5376 686.3089,-128 686.3089,-128 686.3089,-128 384.8177,-128 384.8177,-128 384.8177,-128 384.8177,-151.8129 384.8177,-151.8129"/>
<polygon fill="#000000" stroke="#000000" points="381.3178,-151.8129 384.8177,-161.8129 388.3178,-151.813 381.3178,-151.8129"/>
</g>
<!-- SharedModule -->
<g id="node11" class="node">
<title>SharedModule</title>
<polygon fill="#8dd3c7" stroke="#000000" points="1335.4231,-122 1332.4231,-126 1311.4231,-126 1308.4231,-122 1236.5769,-122 1236.5769,-86 1335.4231,-86 1335.4231,-122"/>
<text text-anchor="middle" x="1286" y="-99.8" font-family="Times,serif" font-size="14.00" fill="#000000">SharedModule</text>
</g>
<!-- SharedModule&#45;&gt;PagesModule -->
<g id="edge10" class="edge">
<title>SharedModule&#45;&gt;PagesModule</title>
<path fill="none" stroke="#000000" d="M1261.3945,-122.037C1261.3945,-135.2913 1261.3945,-151 1261.3945,-151 1261.3945,-151 436.6592,-151 436.6592,-151 436.6592,-151 436.6592,-152.0799 436.6592,-152.0799"/>
<polygon fill="#000000" stroke="#000000" points="433.1593,-151.7985 436.6592,-161.7985 440.1593,-151.7986 433.1593,-151.7985"/>
</g>
<!-- BreadcrumbsComponent  -->
<g id="node20" class="node">
<title>BreadcrumbsComponent </title>
<polygon fill="#fb8072" stroke="#000000" points="1525.9699,-198 1366.0301,-198 1366.0301,-162 1525.9699,-162 1525.9699,-198"/>
<text text-anchor="middle" x="1446" y="-175.8" font-family="Times,serif" font-size="14.00" fill="#000000">BreadcrumbsComponent </text>
</g>
<!-- SharedModule&#45;&gt;BreadcrumbsComponent  -->
<g id="edge19" class="edge">
<title>SharedModule&#45;&gt;BreadcrumbsComponent </title>
<path fill="none" stroke="#000000" stroke-dasharray="5,2" d="M1335.3108,-116C1382.3226,-116 1446,-116 1446,-116 1446,-116 1446,-151.8314 1446,-151.8314"/>
<polygon fill="#000000" stroke="#000000" points="1442.5001,-151.8313 1446,-161.8314 1449.5001,-151.8314 1442.5001,-151.8313"/>
</g>
<!-- HeaderComponent  -->
<g id="node21" class="node">
<title>HeaderComponent </title>
<polygon fill="#fb8072" stroke="#000000" points="1348.7436,-198 1223.2564,-198 1223.2564,-162 1348.7436,-162 1348.7436,-198"/>
<text text-anchor="middle" x="1286" y="-175.8" font-family="Times,serif" font-size="14.00" fill="#000000">HeaderComponent </text>
</g>
<!-- SharedModule&#45;&gt;HeaderComponent  -->
<g id="edge20" class="edge">
<title>SharedModule&#45;&gt;HeaderComponent </title>
<path fill="none" stroke="#000000" stroke-dasharray="5,2" d="M1310.6056,-122.0109C1310.6056,-122.0109 1310.6056,-151.855 1310.6056,-151.855"/>
<polygon fill="#000000" stroke="#000000" points="1307.1056,-151.8549 1310.6056,-161.855 1314.1056,-151.855 1307.1056,-151.8549"/>
</g>
<!-- NopagefoundComponent  -->
<g id="node22" class="node">
<title>NopagefoundComponent </title>
<polygon fill="#fb8072" stroke="#000000" points="1205.5288,-198 1044.4712,-198 1044.4712,-162 1205.5288,-162 1205.5288,-198"/>
<text text-anchor="middle" x="1125" y="-175.8" font-family="Times,serif" font-size="14.00" fill="#000000">NopagefoundComponent </text>
</g>
<!-- SharedModule&#45;&gt;NopagefoundComponent  -->
<g id="edge21" class="edge">
<title>SharedModule&#45;&gt;NopagefoundComponent </title>
<path fill="none" stroke="#000000" stroke-dasharray="5,2" d="M1236.7139,-104C1226.1961,-104 1218.1825,-104 1218.1825,-104 1218.1825,-104 1218.1825,-180 1218.1825,-180 1218.1825,-180 1215.6155,-180 1215.6155,-180"/>
<polygon fill="#000000" stroke="#000000" points="1215.6155,-176.5001 1205.6155,-180 1215.6155,-183.5001 1215.6155,-176.5001"/>
</g>
<!-- SidebarComponent  -->
<g id="node23" class="node">
<title>SidebarComponent </title>
<polygon fill="#fb8072" stroke="#000000" points="1026.596,-198 899.404,-198 899.404,-162 1026.596,-162 1026.596,-198"/>
<text text-anchor="middle" x="963" y="-175.8" font-family="Times,serif" font-size="14.00" fill="#000000">SidebarComponent </text>
</g>
<!-- SharedModule&#45;&gt;SidebarComponent  -->
<g id="edge22" class="edge">
<title>SharedModule&#45;&gt;SidebarComponent </title>
<path fill="none" stroke="#000000" stroke-dasharray="5,2" d="M1286,-122.2396C1286,-137.5706 1286,-157 1286,-157 1286,-157 990.2419,-157 990.2419,-157 990.2419,-157 990.2419,-157.4878 990.2419,-157.4878"/>
<polygon fill="#000000" stroke="#000000" points="986.7422,-151.8776 990.2419,-161.8777 993.7422,-151.8778 986.7422,-151.8776"/>
</g>
<!-- BreadcrumbsComponent -->
<g id="node16" class="node">
<title>BreadcrumbsComponent</title>
<polygon fill="#ffffb3" stroke="#000000" points="2163.9692,-198 2008.0308,-198 2008.0308,-162 2163.9692,-162 2163.9692,-198"/>
<text text-anchor="middle" x="2086" y="-175.8" font-family="Times,serif" font-size="14.00" fill="#000000">BreadcrumbsComponent</text>
</g>
<!-- BreadcrumbsComponent&#45;&gt;SharedModule -->
<g id="edge15" class="edge">
<title>BreadcrumbsComponent&#45;&gt;SharedModule</title>
<path fill="none" stroke="#000000" d="M2086,-161.7663C2086,-135.9906 2086,-92 2086,-92 2086,-92 1345.4399,-92 1345.4399,-92"/>
<polygon fill="#000000" stroke="#000000" points="1345.4399,-88.5001 1335.4399,-92 1345.4398,-95.5001 1345.4399,-88.5001"/>
</g>
<!-- HeaderComponent -->
<g id="node17" class="node">
<title>HeaderComponent</title>
<polygon fill="#ffffb3" stroke="#000000" points="1989.7437,-198 1868.2563,-198 1868.2563,-162 1989.7437,-162 1989.7437,-198"/>
<text text-anchor="middle" x="1929" y="-175.8" font-family="Times,serif" font-size="14.00" fill="#000000">HeaderComponent</text>
</g>
<!-- HeaderComponent&#45;&gt;SharedModule -->
<g id="edge16" class="edge">
<title>HeaderComponent&#45;&gt;SharedModule</title>
<path fill="none" stroke="#000000" d="M1929,-161.8015C1929,-137.6437 1929,-98 1929,-98 1929,-98 1345.3875,-98 1345.3875,-98"/>
<polygon fill="#000000" stroke="#000000" points="1345.3875,-94.5001 1335.3875,-98 1345.3874,-101.5001 1345.3875,-94.5001"/>
</g>
<!-- NopagefoundComponent -->
<g id="node18" class="node">
<title>NopagefoundComponent</title>
<polygon fill="#ffffb3" stroke="#000000" points="1849.5295,-198 1692.4705,-198 1692.4705,-162 1849.5295,-162 1849.5295,-198"/>
<text text-anchor="middle" x="1771" y="-175.8" font-family="Times,serif" font-size="14.00" fill="#000000">NopagefoundComponent</text>
</g>
<!-- NopagefoundComponent&#45;&gt;SharedModule -->
<g id="edge17" class="edge">
<title>NopagefoundComponent&#45;&gt;SharedModule</title>
<path fill="none" stroke="#000000" d="M1771,-161.9891C1771,-139.5148 1771,-104 1771,-104 1771,-104 1345.6243,-104 1345.6243,-104"/>
<polygon fill="#000000" stroke="#000000" points="1345.6243,-100.5001 1335.6243,-104 1345.6242,-107.5001 1345.6243,-100.5001"/>
</g>
<!-- SidebarComponent -->
<g id="node19" class="node">
<title>SidebarComponent</title>
<polygon fill="#ffffb3" stroke="#000000" points="1674.0954,-198 1549.9046,-198 1549.9046,-162 1674.0954,-162 1674.0954,-198"/>
<text text-anchor="middle" x="1612" y="-175.8" font-family="Times,serif" font-size="14.00" fill="#000000">SidebarComponent</text>
</g>
<!-- SidebarComponent&#45;&gt;SharedModule -->
<g id="edge18" class="edge">
<title>SidebarComponent&#45;&gt;SharedModule</title>
<path fill="none" stroke="#000000" d="M1612,-161.9733C1612,-141.2328 1612,-110 1612,-110 1612,-110 1345.5124,-110 1345.5124,-110"/>
<polygon fill="#000000" stroke="#000000" points="1345.5124,-106.5001 1335.5124,-110 1345.5123,-113.5001 1345.5124,-106.5001"/>
</g>
</g>
</svg>
